<!DOCTYPE svg PUBLIC "-//W3C//DTD SVG 20010904//EN" "http://www.w3.org/TR/2001/REC-SVG-20010904/DTD/svg10.dtd">
<svg version="1.0" xmlns="http://www.w3.org/2000/svg" width="53px" height="80px" viewBox="0 0 530 800" preserveAspectRatio="xMidYMid meet">
<g id="layer101" fill="#d25128" stroke="none">
 <path d="M213 743 c9 -2 23 -2 30 0 6 3 -1 5 -18 5 -16 0 -22 -2 -12 -5z"/>
 <path d="M293 743 c4 -3 10 -3 14 0 3 4 0 7 -7 7 -7 0 -10 -3 -7 -7z"/>
 <path d="M211 706 c7 -14 16 -26 20 -26 5 0 13 -9 20 -21 8 -16 8 -24 -2 -33 -9 -8 -10 -8 -5 1 8 15 -3 43 -17 43 -8 0 -8 -3 0 -11 7 -7 8 -20 3 -33 -7 -18 -4 -21 24 -23 17 -1 42 -3 56 -5 19 -2 24 1 20 12 -2 8 -5 36 -5 63 0 26 -3 47 -7 47 -3 0 -14 3 -24 7 -18 7 -18 6 5 -90 9 -37 8 -38 -9 -22 -10 9 -23 36 -30 61 -7 24 -16 44 -20 44 -5 0 -16 3 -25 6 -14 6 -14 3 -4 -20z"/>
 <path d="M353 635 c-9 -24 1 -27 15 -5 8 13 8 20 2 20 -6 0 -13 -7 -17 -15z"/>
 <path d="M204 575 c-10 -26 21 -100 43 -103 24 -4 38 24 17 32 -9 3 -12 1 -9 -4 3 -6 4 -10 1 -10 -11 0 -38 71 -32 85 3 8 1 15 -5 15 -5 0 -12 -7 -15 -15z"/>
 <path d="M330 565 c0 -14 -6 -41 -14 -60 -13 -29 -13 -33 0 -28 8 3 17 17 20 32 3 14 9 33 13 41 9 17 4 40 -10 40 -5 0 -9 -11 -9 -25z"/>
 <path d="M133 403 c4 -3 10 -3 14 0 3 4 0 7 -7 7 -7 0 -10 -3 -7 -7z"/>
 <path d="M116 353 c-6 -14 -5 -15 5 -6 7 7 10 15 7 18 -3 3 -9 -2 -12 -12z"/>
 <path d="M273 343 c-7 -2 -13 -8 -13 -13 0 -10 38 -1 46 11 6 10 -13 11 -33 2z"/>
 <path d="M360 341 c0 -5 7 -11 15 -15 8 -3 15 -1 15 3 0 5 -7 11 -15 15 -8 3 -15 1 -15 -3z"/>
 </g>
<g id="layer102" fill="#eed6b6" stroke="none">
 <path d="M235 740 c-17 -7 -15 -9 13 -9 17 -1 32 4 32 9 0 12 -17 12 -45 0z"/>
 <path d="M305 740 c-4 -6 10 -10 34 -10 23 0 41 5 41 10 0 6 -15 10 -34 10 -19 0 -38 -4 -41 -10z"/>
 <path d="M364 625 c-19 -29 -9 -49 22 -43 13 2 19 12 19 32 0 39 -19 44 -41 11z"/>
 <path d="M226 582 c-4 -3 -6 -12 -5 -21 0 -12 3 -11 9 4 8 18 9 17 9 -6 1 -33 24 -53 51 -44 12 4 20 2 20 -5 0 -6 -4 -9 -9 -6 -5 3 -14 -1 -20 -8 -9 -11 -9 -16 0 -22 7 -4 9 -3 5 4 -3 6 -2 13 4 17 5 3 10 0 10 -7 0 -10 2 -10 9 1 5 7 7 32 5 55 -3 37 -2 38 6 11 l9 -30 -2 30 c-2 29 -4 30 -49 31 -26 1 -49 -1 -52 -4z"/>
 <path d="M239 446 c-19 -7 -46 -20 -60 -29 -13 -9 -31 -17 -41 -17 -39 0 -66 -64 -33 -77 22 -8 33 6 15 18 -13 8 -12 12 5 25 11 8 28 20 37 25 16 9 17 7 6 -16 -16 -36 4 -54 70 -62 28 -3 49 -10 46 -14 -3 -5 2 -9 12 -9 13 0 14 3 4 15 -7 8 -19 15 -26 15 -19 0 -18 16 2 24 21 8 39 8 31 -1 -10 -9 49 -33 83 -33 34 0 50 35 17 37 -11 1 -27 9 -36 19 -15 15 -14 15 17 9 30 -6 32 -5 32 19 0 54 -97 82 -181 52z m104 -13 c3 -5 -5 -8 -18 -8 -13 0 -21 3 -18 8 2 4 10 7 18 7 8 0 16 -3 18 -7z m-58 -69 c-24 -18 -69 -18 -83 -1 -9 10 1 13 45 13 50 1 54 0 38 -12z m105 -35 c0 -4 -7 -6 -15 -3 -8 4 -15 10 -15 15 0 4 7 6 15 3 8 -4 15 -10 15 -15z"/>
 <path d="M385 290 c3 -5 8 -10 11 -10 3 0 2 5 -1 10 -3 6 -8 10 -11 10 -3 0 -2 -4 1 -10z"/>
 </g>
<g id="layer103" fill="#141416" stroke="none">
 <path d="M194 746 c-3 -8 2 -28 10 -45 9 -17 16 -33 16 -36 -1 -23 2 -26 16 -21 12 5 15 2 10 -11 -6 -14 -4 -15 4 -7 9 9 9 17 1 33 -7 12 -15 21 -20 21 -4 0 -13 12 -20 26 -10 23 -10 26 4 20 9 -3 20 -6 24 -6 4 0 13 -19 20 -42 7 -24 19 -50 27 -58 12 -14 9 -16 -25 -15 -29 0 -37 3 -34 15 3 8 -5 0 -17 -19 -20 -31 -21 -38 -9 -78 6 -24 16 -46 20 -49 15 -9 10 -26 -7 -20 -10 4 -13 2 -9 -7 4 -6 0 -4 -8 6 -14 16 -15 16 -28 0 -12 -14 -12 -16 0 -8 10 5 12 4 7 -4 -6 -9 -11 -9 -24 1 -13 11 -15 10 -9 -5 4 -10 3 -16 -2 -12 -5 3 -22 -10 -37 -27 -15 -18 -31 -32 -35 -31 -4 1 -5 -7 -2 -17 4 -15 0 -20 -13 -20 -14 0 -15 -3 -6 -12 14 -14 17 -52 3 -44 -12 8 4 -71 19 -89 11 -13 10 -19 -5 -34 -16 -19 -16 -19 2 -15 11 3 28 -5 42 -20 17 -18 20 -26 10 -26 -21 -1 33 -29 55 -30 11 0 30 -10 43 -22 18 -17 23 -18 23 -6 0 14 5 14 36 3 20 -7 40 -18 45 -26 6 -10 9 -6 9 14 0 19 5 27 18 27 10 0 34 12 53 26 21 15 43 24 57 21 18 -3 20 -2 11 9 -12 15 -30 8 -81 -29 -16 -12 -36 -18 -51 -15 -20 4 -23 1 -20 -13 5 -16 1 -17 -28 -9 -19 6 -40 18 -46 27 -12 15 -13 15 -13 -6 0 -13 -4 -20 -11 -15 -6 3 -9 17 -6 29 4 23 3 23 -20 8 -18 -12 -29 -13 -46 -5 -12 6 -16 11 -10 11 7 1 -4 17 -25 37 -33 31 -34 35 -13 31 l23 -6 -21 23 c-26 27 -28 51 -4 42 13 -5 11 0 -7 19 -21 23 -22 25 -5 19 11 -4 30 -16 42 -27 l22 -19 -6 23 c-5 19 -3 21 13 15 15 -6 15 -3 -5 18 l-24 25 34 -11 c19 -6 49 -17 67 -24 18 -8 31 -10 27 -4 -3 5 1 10 10 10 9 0 13 4 10 10 -10 16 18 12 45 -7 18 -12 22 -13 14 -3 -40 54 -9 68 44 21 30 -28 32 -28 32 -9 0 16 3 18 13 9 11 -8 13 -4 10 22 l-4 32 20 -24 c12 -13 21 -36 21 -53 0 -19 4 -27 12 -22 7 5 8 3 3 -6 -5 -8 -2 -18 9 -25 15 -11 13 -16 -19 -44 -39 -34 -61 -40 -51 -14 6 14 3 14 -15 -3 l-21 -19 27 -3 c20 -3 36 5 59 27 18 17 38 31 46 31 9 0 6 7 -8 23 l-22 24 21 26 20 27 -21 0 c-18 0 -21 5 -18 24 3 17 1 23 -8 19 -7 -2 -10 -12 -7 -21 4 -14 3 -15 -5 -2 -6 8 -8 18 -6 22 9 14 -7 89 -17 82 -5 -3 -7 -10 -4 -15 4 -5 1 -9 -5 -9 -7 0 -10 7 -7 15 7 17 -43 62 -79 71 -13 3 -21 11 -17 17 3 6 9 24 12 40 4 20 17 37 36 47 50 27 41 97 -11 87 -16 -3 -26 3 -35 20 -14 26 -6 39 26 45 11 2 20 10 20 18 0 22 -183 28 -191 6z m86 -6 c0 -13 -50 -13 -70 0 -11 7 -4 10 28 10 23 0 42 -4 42 -10z m100 0 c0 -5 -18 -10 -39 -10 -22 0 -43 5 -46 10 -4 6 12 10 39 10 25 0 46 -4 46 -10z m-61 -20 c3 0 5 -18 3 -39 -2 -21 1 -48 7 -59 8 -15 7 -23 -4 -32 -8 -7 -15 -11 -16 -9 0 2 -3 18 -5 34 -3 17 -9 43 -14 59 -15 43 -13 59 6 52 9 -3 19 -6 23 -6z m-31 -80 c0 -8 -6 1 -13 20 -7 19 -13 42 -13 50 0 8 6 -1 13 -20 7 -19 13 -42 13 -50z m-48 20 c0 -5 -2 -10 -4 -10 -3 0 -8 5 -11 10 -3 6 -1 10 4 10 6 0 11 -4 11 -10z m165 -45 c0 -25 -4 -30 -25 -30 -19 0 -26 6 -29 25 -1 14 -8 28 -14 32 -5 3 8 5 29 5 36 -2 39 -4 39 -32z m-97 -62 c2 -25 -1 -33 -18 -38 -30 -9 -53 13 -48 47 5 33 0 36 -11 6 -12 -34 14 -78 42 -70 20 5 20 4 8 -11 -21 -26 -50 -21 -62 11 -23 61 -23 81 2 90 12 5 36 6 53 3 26 -6 32 -12 34 -38z m45 22 c4 -8 2 -17 -3 -20 -6 -4 -10 -16 -10 -28 0 -31 -13 -47 -39 -52 -19 -3 -21 -2 -11 10 7 8 9 15 4 15 -5 0 -1 5 9 11 10 6 17 22 17 38 0 40 22 57 33 26z m35 -135 c23 -14 32 -27 32 -46 0 -23 -3 -26 -25 -22 -21 4 -23 3 -13 -9 6 -8 20 -12 31 -9 13 3 17 0 13 -11 -3 -8 -6 -21 -6 -29 0 -11 -7 -14 -22 -10 -13 3 -17 3 -10 0 6 -3 12 -10 12 -15 0 -4 -16 3 -36 16 -20 14 -48 25 -62 25 -24 0 -24 -1 -9 -18 22 -24 21 -31 -3 -25 -11 3 -17 10 -14 15 3 5 0 8 -7 7 -8 -1 -33 2 -56 6 -44 8 -59 27 -47 59 9 23 -12 20 -29 -4 -8 -11 -18 -17 -23 -12 -4 4 -2 -1 5 -11 16 -20 9 -32 -14 -24 -36 14 -6 77 39 82 15 2 33 9 41 15 49 40 153 51 203 20z m-163 -140 c8 -13 -25 -13 -45 0 -12 8 -9 10 12 10 15 0 30 -4 33 -10z m285 -34 c0 -3 -4 -8 -10 -11 -5 -3 -10 -1 -10 4 0 6 5 11 10 11 6 0 10 -2 10 -4z"/>
 <path d="M318 433 c7 -3 16 -2 19 1 4 3 -2 6 -13 5 -11 0 -14 -3 -6 -6z"/>
 <path d="M212 363 c13 -17 39 -16 62 0 15 11 11 13 -28 12 -34 0 -42 -3 -34 -12z"/>
 <path d="M437 226 c-21 -31 -22 -47 -2 -20 14 19 14 19 15 -1 1 -18 1 -19 11 -2 6 10 6 23 1 33 -7 13 -11 12 -25 -10z"/>
 </g>
<g id="layer104" fill="#4f4d51" stroke="none">
 <path d="M164 438 c-4 -7 -3 -8 4 -4 7 4 12 9 12 12 0 8 -9 4 -16 -8z"/>
 <path d="M430 390 c0 -5 5 -10 11 -10 5 0 7 5 4 10 -3 6 -8 10 -11 10 -2 0 -4 -4 -4 -10z"/>
 <path d="M190 375 c0 -2 6 -8 13 -14 10 -8 14 -7 14 2 0 8 -6 14 -14 14 -7 0 -13 -1 -13 -2z"/>
 <path d="M284 368 c-4 -7 -3 -8 4 -4 12 7 16 16 8 16 -3 0 -8 -5 -12 -12z"/>
 <path d="M360 375 c0 -2 6 -8 13 -14 10 -8 14 -7 14 2 0 8 -6 14 -14 14 -7 0 -13 -1 -13 -2z"/>
 <path d="M414 348 c-4 -7 -3 -8 4 -4 12 7 16 16 8 16 -3 0 -8 -5 -12 -12z"/>
 <path d="M432 302 c4 -25 2 -29 -9 -21 -10 9 -13 7 -13 -9 0 -19 -2 -19 -32 9 -52 47 -85 33 -44 -20 9 -12 8 -12 -11 -1 -12 8 -20 17 -17 21 2 4 -5 5 -16 2 -11 -3 -17 -9 -14 -14 3 -5 -2 -9 -11 -9 -9 0 -13 -5 -10 -10 4 -6 -9 -4 -27 4 -18 7 -48 18 -67 24 l-34 11 24 -25 c20 -21 20 -24 5 -18 -16 6 -18 4 -13 -15 l6 -23 -22 19 c-12 11 -31 23 -42 27 -17 6 -16 4 5 -19 18 -19 20 -24 7 -19 -24 9 -22 -15 4 -42 l21 -23 -23 6 c-21 4 -20 0 13 -31 21 -20 32 -36 25 -37 -6 0 -2 -5 10 -11 17 -8 28 -7 46 5 23 15 24 15 20 -8 -3 -12 0 -26 6 -29 7 -5 11 2 11 15 0 21 1 21 12 6 7 -9 28 -21 47 -27 29 -8 33 -7 28 9 -3 14 1 17 19 13 15 -3 40 7 69 26 l46 31 -32 3 -31 3 21 19 c18 17 21 17 15 3 -10 -26 12 -20 51 14 32 28 34 33 19 44 -11 7 -14 17 -9 25 6 9 4 11 -4 5 -10 -6 -12 3 -9 36 1 25 -1 44 -7 44 -5 0 -16 4 -24 9 -11 7 -13 2 -9 -22z m35 -9 c-4 -3 -7 0 -7 7 0 7 3 10 7 7 3 -4 3 -10 0 -14z m-6 -90 c-10 -17 -10 -16 -11 2 -1 20 -1 20 -15 1 -20 -27 -19 -11 2 20 14 22 18 23 25 10 5 -10 5 -23 -1 -33z"/>
 <path d="M180 300 c20 -13 53 -13 45 0 -3 6 -18 10 -33 10 -21 0 -24 -2 -12 -10z"/>
 <path d="M274 298 c-4 -7 -3 -8 4 -4 7 4 12 9 12 12 0 8 -9 4 -16 -8z"/>
 <path d="M490 259 c0 -5 5 -7 10 -4 6 3 10 8 10 11 0 2 -4 4 -10 4 -5 0 -10 -5 -10 -11z"/>
 </g>

</svg>