<svg width="111" height="31" viewBox="0 0 111 31" xmlns="http://www.w3.org/2000/svg" xmlns:xlink="http://www.w3.org/1999/xlink"><title>Logo Osedea</title><defs><path id="a" d="M14.322.402H.204v29.965h14.118V.402z"/><path id="c" d="M16.597 29.38V.203H.59V29.38h16.006z"/></defs><g fill="none" fill-rule="evenodd"><path d="M8.776 1.068H6.265a.467.467 0 0 0-.458.372L.01 29.682a.464.464 0 0 0 .457.56h2.51a.468.468 0 0 0 .458-.374L9.233 1.626a.465.465 0 0 0-.457-.558" fill="#EE4028"/><g transform="translate(17.126 .23)"><mask id="b" fill="#fff"><use xlink:href="#a"/></mask><path d="M3.879 7.127c0-1.672.878-3.458 3.345-3.458 2.17 0 3.464 1.248 3.464 3.338v16.439c0 .848-.243 3.614-3.384 3.614-2.526 0-3.425-1.846-3.425-3.575V7.127zM7.344.402C3.006.402.204 3.118.204 7.323v16.123c0 4.334 2.609 6.921 6.98 6.921 4.403 0 7.138-2.727 7.138-7.12V6.968c0-4.05-2.674-6.565-6.978-6.565z" fill="#FFF" mask="url(#b)"/></g><path d="M40.715 11.964C39.424 10.474 38.046 8.74 38.046 7c0-1.486.47-3.258 2.712-3.258 1.177 0 2.43.444 2.795 3.745a.463.463 0 0 0 .478.414l2.46-.08a.46.46 0 0 0 .33-.151.462.462 0 0 0 .121-.341C46.608 1.794 43.458.633 40.877.633c-3.84 0-6.224 2.514-6.224 6.565 0 2.367 1.034 4.63 3.248 7.116l3.506 4.09c1.483 1.63 2.3 3.516 2.3 5.312 0 1.134-.28 3.772-2.869 3.772-1.863 0-2.906-1.391-3.188-4.254-.025-.243-.248-.438-.48-.42l-2.542.08a.465.465 0 0 0-.452.5c.336 4.645 2.702 7.204 6.662 7.204 3.854 0 6.344-2.793 6.344-7.12 0-2.793-1.063-5.258-3.447-7.987l-3.02-3.527zM61.574 26.974h-7.516V16.576h5.927a.467.467 0 0 0 .466-.466v-2.336a.467.467 0 0 0-.466-.466h-5.927V4.257h7.476A.467.467 0 0 0 62 3.79V1.533a.467.467 0 0 0-.466-.465H50.93a.467.467 0 0 0-.467.465v28.243c0 .257.21.466.467.466h10.644a.466.466 0 0 0 .466-.466V27.44a.466.466 0 0 0-.466-.466M68.996 4.296h2.95c2.126 0 3.345 1.188 3.345 3.257v16.004c0 .572-.164 3.417-3.386 3.417h-2.909V4.296zm3.227-3.229H65.87a.467.467 0 0 0-.467.467v28.242c0 .257.21.466.467.466h6.234c4.233 0 6.862-2.56 6.862-6.685V7.237c0-3.805-2.583-6.17-6.742-6.17zM93.873 1.068H83.27a.466.466 0 0 0-.466.465v28.243c0 .257.208.466.466.466h7.37a.466.466 0 0 0 .457-.372l.48-2.336a.466.466 0 0 0-.458-.56h-4.72V16.576h5.927a.467.467 0 0 0 .467-.466v-2.336a.467.467 0 0 0-.467-.466h-5.927V4.257h7.475a.466.466 0 0 0 .467-.466V1.533a.466.466 0 0 0-.467-.465" fill="#FFF"/><g transform="translate(93.874 .863)"><mask id="d" fill="#fff"><use xlink:href="#c"/></mask><path d="M6.442 17.24L8.584 6.804l2.143 10.436H6.442zm10.1 11.453L10.77.576a.465.465 0 0 0-.457-.372H6.857A.464.464 0 0 0 6.4.576L.6 28.82a.467.467 0 0 0 .458.56H3.57a.466.466 0 0 0 .457-.373l1.754-8.544h5.609l1.754 8.544a.467.467 0 0 0 .457.373H16.13a.467.467 0 0 0 .412-.686z" fill="#FFF" mask="url(#d)"/></g><path d="M8.776 1.068H6.265a.467.467 0 0 0-.458.372L.01 29.682a.464.464 0 0 0 .457.56h2.51a.468.468 0 0 0 .458-.373L9.233 1.626a.465.465 0 0 0-.457-.558" fill="#EE4028"/></g></svg>